<?xml version="1.0" encoding="UTF-8"?>
<svg id="Capa_1" data-name="Capa 1" xmlns="http://www.w3.org/2000/svg" version="1.1" viewBox="0 0 172.89 200">
  <defs>
    <style>
      .cls-1 {
        fill: #00b0a6;
      }

      .cls-1, .cls-2, .cls-3, .cls-4, .cls-5, .cls-6, .cls-7, .cls-8, .cls-9, .cls-10 {
        stroke-width: 0px;
      }

      .cls-2 {
        fill: #f98927;
      }

      .cls-3 {
        fill: #9d2449;
      }

      .cls-4 {
        fill: #8e418d;
      }

      .cls-5 {
        fill: #f44c63;
      }

      .cls-6 {
        fill: #b38e5d;
      }

      .cls-7 {
        fill: #5b78b1;
      }

      .cls-8 {
        fill: #f6c54f;
      }

      .cls-9 {
        fill: #0098d4;
      }

      .cls-10 {
        fill: #59b038;
      }
    </style>
  </defs>
  <g>
    <g>
      <g>
        <path class="cls-3" d="M90.77,124.22c-2.17,0-3.13.32-4.36.74-1.49.5-3.18,1.07-6.39,1.07s-4.9-.57-6.39-1.07c-1.23-.41-2.19-.74-4.36-.74v3.53c3.21,0,4.9.57,6.39,1.07,1.23.41,2.19.74,4.36.74s3.13-.33,4.36-.74c1.49-.5,3.18-1.07,6.39-1.07s4.9.57,6.39,1.07c1.23.41,2.19.74,4.36.74v-3.53c-3.21,0-4.9-.57-6.39-1.07-1.23-.41-2.19-.74-4.36-.74Z"/>
        <path class="cls-3" d="M75.67,118.92c1.23.41,2.19.74,4.36.74s3.13-.33,4.36-.74c1.49-.5,3.18-1.07,6.39-1.07s4.9.57,6.39,1.07c1.23.41,2.19.74,4.36.74v-4.06h-32.24v2.25c3.21,0,4.9.57,6.39,1.07Z"/>
        <path class="cls-3" d="M90.77,134.11c-2.17,0-3.13.33-4.36.74-1.49.5-3.18,1.07-6.39,1.07s-4.9-.57-6.39-1.07c-1.23-.41-2.19-.74-4.36-.74v3.53c3.21,0,4.9.57,6.39,1.07,1.23.41,2.19.74,4.36.74s3.13-.33,4.36-.74c1.49-.5,3.18-1.07,6.39-1.07s4.9.57,6.39,1.07c1.23.41,2.19.74,4.36.74v-3.53c-3.21,0-4.9-.57-6.39-1.07-1.23-.41-2.19-.74-4.36-.74Z"/>
        <path class="cls-3" d="M90.77,144.01c-2.17,0-3.13.33-4.36.74-1.49.5-3.18,1.07-6.39,1.07s-4.9-.57-6.39-1.07c-1.23-.41-2.19-.74-4.36-.74v3.83h32.24v-2.02c-3.21,0-4.9-.57-6.39-1.07-1.23-.41-2.19-.74-4.36-.74Z"/>
      </g>
      <g>
        <polygon class="cls-3" points="114.27 83.45 114.27 77 107.82 77 107.82 83.45 107.82 89.89 114.27 89.89 120.71 89.89 120.71 83.45 114.27 83.45"/>
        <rect class="cls-3" x="101.37" y="89.89" width="6.45" height="6.45"/>
        <polygon class="cls-3" points="114.27 96.34 107.82 96.34 107.82 102.79 107.82 109.23 114.27 109.23 114.27 102.79 120.71 102.79 120.71 96.34 114.27 96.34"/>
        <polygon class="cls-3" points="94.93 77 94.93 83.45 88.48 83.45 88.48 89.89 94.93 89.89 101.37 89.89 101.37 83.45 101.37 77 94.93 77"/>
        <polygon class="cls-3" points="94.93 96.34 88.48 96.34 88.48 102.79 94.93 102.79 94.93 109.23 101.37 109.23 101.37 102.79 101.37 96.34 94.93 96.34"/>
      </g>
      <g>
        <polygon class="cls-3" points="27.33 81.98 20.88 73.9 27.33 65.84 20.88 57.8 11.48 57.8 11.48 90.04 20.88 90.04 27.33 81.98"/>
        <polygon class="cls-3" points="27.87 57.8 34.32 65.83 27.87 73.9 34.32 81.98 27.87 90.04 43.72 90.04 43.72 57.8 27.87 57.8"/>
      </g>
      <g>
        <path class="cls-3" d="M50.08,98.32v5.3c0,3.09,2.52,5.61,5.61,5.61h26.63v-10.91h-32.24Z"/>
        <polygon class="cls-3" points="53.65 87.58 53.65 91.16 57.23 91.16 57.23 94.74 57.23 94.74 57.23 94.74 67.98 94.74 67.98 94.74 67.98 94.74 67.98 87.58 67.98 87.58 67.98 87.58 64.39 87.58 64.39 87.58 64.39 87.58 64.39 91.16 60.81 91.16 60.81 83.99 64.39 83.99 67.98 83.99 71.56 83.99 71.56 87.58 75.14 87.58 75.14 91.16 75.14 91.16 75.14 91.16 78.72 91.16 78.72 94.74 78.72 94.74 78.72 94.74 82.32 94.74 82.32 77 50.08 77 50.08 87.58 53.65 87.58"/>
      </g>
      <g>
        <path class="cls-3" d="M82.32,38.6h-26.63c-3.09,0-5.61,2.52-5.61,5.61v.84h32.24v-6.45Z"/>
        <rect class="cls-3" x="50.08" y="64.39" width="32.24" height="6.45"/>
        <rect class="cls-3" x="50.08" y="51.5" width="32.24" height="6.45"/>
      </g>
      <g>
        <polygon class="cls-3" points="94.93 54.72 104.44 38.6 88.48 38.6 88.48 70.84 104.44 70.84 94.93 54.72"/>
        <path class="cls-3" d="M115.11,38.6h-10.36l9.52,16.12-9.52,16.12h15.97v-26.63c0-3.09-2.52-5.61-5.61-5.61Z"/>
      </g>
      <g>
        <path class="cls-3" d="M98.35,21.48c.52,2.18.02,4.46-1.56,6.03s-3.85,2.08-6.03,1.56c-1.17,1.91-3.14,3.16-5.37,3.16h16.12v-16.12c0,2.23-1.25,4.19-3.16,5.37Z"/>
        <path class="cls-3" d="M80.03,29.07c-2.18.52-4.46.02-6.03-1.56-1.58-1.58-2.08-3.85-1.56-6.03-1.91-1.17-3.16-3.14-3.16-5.37v16.12h16.12c-2.23,0-4.19-1.25-5.37-3.16Z"/>
        <circle class="cls-3" cx="85.4" cy="16.12" r="3.22"/>
        <path class="cls-3" d="M72.44,10.75c-.52-2.18-.02-4.46,1.56-6.03,1.58-1.58,3.85-2.08,6.03-1.56,1.17-1.91,3.14-3.16,5.37-3.16h-16.12v16.12c0-2.23,1.25-4.19,3.16-5.37Z"/>
        <path class="cls-3" d="M85.4,0c2.23,0,4.19,1.25,5.37,3.16,2.18-.52,4.46-.02,6.03,1.56,1.58,1.58,2.08,3.85,1.56,6.03,1.91,1.17,3.16,3.14,3.16,5.37V0h-16.12Z"/>
      </g>
      <g>
        <polygon class="cls-3" points="152.87 57.8 152.87 77.14 133.53 77.14 133.53 57.8 127.08 57.8 127.08 90.04 159.32 90.04 159.32 57.8 152.87 57.8"/>
        <polygon class="cls-3" points="146.42 64.25 146.42 57.8 139.97 57.8 139.97 64.25 139.97 70.69 146.42 70.69 146.42 64.25"/>
      </g>
    </g>
    <g>
      <path class="cls-1" d="M115.79,0h-7.91v12.14c0,.44.36.8.8.8h5.67c17.62,0,32.03,14.41,32.03,32.03v.1h12.94v-1.54C159.32,19.59,139.73,0,115.79,0Z"/>
      <path class="cls-4" d="M141.51,45.07h.01c-.79,0-1.44-.58-1.57-1.33-.95-13.61-12.38-24.44-26.22-24.44h-5.85v4.91c0,4.19,3.2,7.64,7.28,8.03.2,0,.4.02.59.03.07,0,.13,0,.2,0,.18,0,.32.02.42.06,5.53.73,9.94,5.18,10.61,10.73.02.09.03.18.03.29,0,0,0,0,0,.01.03.29.04.58.05.88.45,4.04,3.87,7.18,8.02,7.18h24.22v-6.37h-17.81Z"/>
    </g>
    <g>
      <path class="cls-5" d="M55.01,0C31.07,0,11.48,19.59,11.48,43.53v7.91h12.14c.44,0,.8-.36.8-.8v-5.67c0-17.62,14.41-32.03,32.03-32.03h.1V0h-1.54Z"/>
      <path class="cls-9" d="M56.55,0v17.81h0c0,.78-.57,1.43-1.32,1.56-13.61.95-24.44,12.38-24.44,26.22v5.85h4.92c4.16,0,7.58-3.14,8.02-7.18,0-.3.02-.59.05-.88,0,0,0,0,0-.01,0-.1.01-.2.03-.29.67-5.55,5.08-9.99,10.61-10.73.1-.04.24-.06.42-.06.07,0,.13,0,.2,0,.2-.02.39-.03.59-.03,4.09-.4,7.28-3.84,7.28-8.03V0h-6.37Z"/>
    </g>
    <g>
      <path class="cls-10" d="M11.48,104.31c0,23.94,19.59,43.53,43.53,43.53h7.91v-12.14c0-.44-.36-.8-.8-.8h0s-5.67,0-5.67,0c-17.62,0-32.03-14.41-32.03-32.03v-.1h-12.94v1.54Z"/>
      <path class="cls-2" d="M30.85,104.09c.95,13.61,12.38,24.44,26.22,24.44h5.85v-4.91c0-4.19-3.2-7.64-7.28-8.03-.2,0-.4-.02-.59-.03-.07,0-.13,0-.2,0-.18,0-.32-.02-.42-.06-5.53-.73-9.94-5.18-10.61-10.73-.02-.09-.03-.18-.03-.29,0,0,0,0,0-.01-.03-.29-.04-.58-.05-.88-.45-4.04-3.87-7.18-8.02-7.18H11.48v6.37h17.8,0c.79,0,1.44.58,1.57,1.33Z"/>
    </g>
    <g>
      <path class="cls-7" d="M147.18,96.4c-.44,0-.8.36-.8.8h0v5.67c0,17.62-14.41,32.03-32.03,32.03h-.1v12.94h1.54c23.94,0,43.53-19.59,43.53-43.53v-7.91h-12.14Z"/>
      <path class="cls-8" d="M114.25,130.03h0c0-.78.57-1.43,1.32-1.56,13.61-.95,24.44-12.38,24.44-26.22v-5.85h-4.92c-4.16,0-7.58,3.14-8.02,7.18,0,.3-.02.59-.05.88,0,0,0,0,0,.01,0,.1-.01.2-.03.29-.67,5.55-5.08,9.99-10.61,10.73-.1.04-.24.06-.42.06-.07,0-.13,0-.2,0-.2.02-.39.03-.59.03-4.09.4-7.28,3.84-7.28,8.03v24.21h6.37v-17.8Z"/>
    </g>
  </g>
  <g>
    <g>
      <path class="cls-3" d="M12.72,189.43c-3.81,0-6.88-1.12-9.21-3.36-2.33-2.24-3.5-5.25-3.5-9.05,0-4.14,1.26-7.49,3.79-10.06,2.53-2.57,5.82-3.86,9.9-3.86,3.71,0,6.71,1.14,8.98,3.41,2.27,2.27,3.41,5.33,3.41,9.18,0,4.04-1.25,7.34-3.74,9.9-2.49,2.56-5.7,3.84-9.63,3.84ZM13.15,185.46c1.99,0,3.47-.43,4.45-1.3.45-.65.88-1.65,1.28-2.99.4-1.35.59-2.87.59-4.58,0-3.17-.5-5.56-1.51-7.14-1.01-1.59-2.69-2.38-5.07-2.38-1.82,0-3.29.43-4.42,1.3-1.25,1.83-1.87,4.55-1.87,8.15,0,2.84.55,5.04,1.65,6.6,1.1,1.56,2.73,2.34,4.89,2.34Z"/>
      <path class="cls-3" d="M38.08,186.61l-.5,2.12h-10.6l-.47-2.12,2.77-1.08c1.92-4.64,4.21-10.73,6.9-18.31l1.01-3.6c3.02-.24,5.68-.36,7.97-.36.17.65.6,1.97,1.29,3.97,2.47,7.02,4.72,13.14,6.75,18.36l2.8,1-.47,2.12h-12.21l-.47-2.12,3.41-1.04c-.43-1.27-.92-2.73-1.47-4.42l-8.98.23c-.05.17-.46,1.54-1.22,4.19l3.48,1.05ZM36.86,177.85l6.83.14c-1.27-3.73-2.48-7.19-3.63-10.39-.93,2.77-2,6.18-3.2,10.25Z"/>
      <path class="cls-3" d="M76.52,189.03c-1.27-2.36-3.42-5.69-6.47-9.99-1.32,2.29-2.49,4.37-3.52,6.24,1.51.67,2.61,1.06,3.3,1.33l-.47,2.12h-10.96l-.47-2.12,2.62-1.19c1.87-2.14,4.31-5.27,7.33-9.43-3.23-4.45-5.48-7.37-6.75-8.79-1.25-.65-2.25-1.1-3.02-1.37l.47-2.2c2.68,0,5.56-.05,8.62-.14,1.24,2.33,3.29,5.56,6.14,9.67l3.3-5.92c-1.51-.65-2.61-1-3.3-1.29l.47-2.08h10.96l.47,2.08-2.62,1.17c-1.72,1.97-4.1,5.01-7.11,9.17,3.09,4.28,5.42,7.29,7,9.04.91.46,1.92.91,3.02,1.36l-.47,2.2c-2.68,0-5.53.04-8.55.14Z"/>
      <path class="cls-3" d="M99.18,186.61l-.5,2.12h-10.6l-.47-2.12,2.77-1.08c1.92-4.64,4.21-10.73,6.9-18.31l1.01-3.6c3.02-.24,5.68-.36,7.97-.36.17.65.6,1.97,1.29,3.97,2.47,7.02,4.72,13.14,6.75,18.36l2.8,1-.47,2.12h-12.21l-.47-2.12,3.41-1.04c-.43-1.27-.92-2.73-1.47-4.42l-8.98.23c-.05.17-.46,1.54-1.22,4.19l3.48,1.05ZM97.95,177.85l6.83.14c-1.27-3.73-2.48-7.19-3.63-10.39-.93,2.77-2,6.18-3.2,10.25Z"/>
      <path class="cls-3" d="M131.23,185.32c1.63,0,2.81-.2,3.56-.61.36-1.06.81-2.57,1.37-4.55,1.32-.05,2.73.01,4.24.18.1,1.37.14,3.17.14,5.41l-.54,1.12c-2.61,1.71-5.8,2.56-9.56,2.56-4.05,0-7.24-1.14-9.57-3.41-2.33-2.27-3.5-5.38-3.5-9.33s1.32-7.29,3.95-9.81c2.63-2.53,5.88-3.79,9.73-3.79,3.16,0,6.25.75,9.27,2.24l.61,1.08c-.36,1.95-.83,4.12-1.4,6.53-1.44.05-2.75-.01-3.95-.18-.38-2.04-.78-3.72-1.19-5.01-.84-.51-2.05-.76-3.63-.76-1.8,0-3.16.29-4.1.87-1.72,2.09-2.59,4.89-2.59,8.41,0,2.81.62,5.03,1.85,6.64,1.23,1.61,3,2.42,5.3,2.42Z"/>
      <path class="cls-3" d="M154.97,186.61l-.5,2.12h-10.6l-.47-2.12,2.77-1.08c1.92-4.64,4.21-10.73,6.9-18.31l1.01-3.6c3.02-.24,5.68-.36,7.97-.36.17.65.6,1.97,1.29,3.97,2.47,7.02,4.72,13.14,6.75,18.36l2.8,1-.47,2.12h-12.21l-.47-2.12,3.41-1.04c-.43-1.27-.92-2.73-1.47-4.42l-8.98.23c-.05.17-.46,1.54-1.22,4.19l3.48,1.05ZM153.75,177.85l6.83.14c-1.27-3.73-2.48-7.19-3.63-10.39-.93,2.77-2,6.18-3.2,10.25Z"/>
    </g>
    <g>
      <path class="cls-6" d="M17.05,200c-.43,0-.83-.07-1.2-.21s-.69-.33-.95-.59c-.27-.26-.48-.56-.63-.9-.15-.35-.23-.73-.23-1.14s.08-.8.23-1.14c.15-.35.36-.65.63-.9.27-.26.59-.45.96-.59s.78-.21,1.22-.21c.51,0,.97.09,1.38.26.4.17.74.42,1,.74l-.98.89c-.19-.2-.39-.36-.6-.46-.22-.1-.46-.15-.72-.15-.23,0-.45.04-.64.11s-.36.18-.49.32c-.13.14-.24.3-.32.49-.08.19-.11.41-.11.64s.04.44.11.63c.08.19.18.36.32.5.13.14.3.25.49.32.19.08.4.11.63.11s.45-.04.67-.11c.22-.08.44-.2.66-.39l.86,1.09c-.31.22-.67.4-1.08.52-.41.12-.81.18-1.21.18ZM17.87,199.1v-2.29h1.24v2.49l-1.24-.2Z"/>
      <path class="cls-6" d="M25.59,200c-.44,0-.84-.07-1.21-.21-.37-.14-.69-.34-.96-.6-.27-.26-.48-.56-.63-.9s-.23-.72-.23-1.13.08-.79.23-1.13.36-.64.63-.9c.27-.26.59-.46.96-.6.37-.14.77-.21,1.21-.21s.84.07,1.21.21c.37.14.68.34.95.6s.48.56.63.9c.15.34.23.72.23,1.13s-.08.79-.23,1.14c-.15.35-.36.65-.63.9-.27.26-.59.45-.95.59-.37.14-.77.21-1.21.21ZM25.59,198.72c.21,0,.4-.04.58-.11s.33-.18.47-.32.24-.3.31-.5c.08-.19.11-.41.11-.64s-.04-.45-.11-.64c-.08-.19-.18-.35-.31-.49s-.29-.24-.47-.32-.37-.11-.58-.11-.4.04-.58.11c-.18.07-.33.18-.47.32-.13.14-.24.3-.31.49-.08.19-.11.41-.11.64s.04.45.11.64c.08.19.18.36.31.5.13.14.29.24.47.32.18.07.37.11.58.11Z"/>
      <path class="cls-6" d="M32.1,199.92v-5.59h2.63c.72,0,1.25.18,1.6.44s.53.63.53,1.06c0,.28-.07.54-.22.75-.15.21-.36.38-.62.51-.27.12-.58.19-.95.19l.16-.37c.38,0,.72.06,1,.18.29.12.51.29.67.51.16.22.24.49.24.81,0,.47-.19.86-.57,1.12s-.94.41-1.67.41h-2.78ZM33.34,198.68h1.42c.26,0,.47,0,.6-.09.14-.09.21-.21.21-.39s-.07-.43-.21-.52c-.14-.09-.34-.24-.6-.24h-1.42v-.62h1.19c.26,0,.45-.15.58-.24s.19-.28.19-.45-.07-.32-.19-.41-.32-.14-.58-.14h-1.19v3.11Z"/>
      <path class="cls-6" d="M40.15,199.92v-5.59h1.86v5.59h-1.86Z"/>
      <path class="cls-6" d="M46.96,198.68h3.09v1.24h-4.33v-5.59h4.33v1.24h-3.09v3.11ZM46.96,196.81h2.48v.62h-2.48v-.62Z"/>
      <path class="cls-6" d="M53.14,199.92v-5.59h2.7c.5,0,.93.13,1.29.29.36.16.64.42.84.72s.3.68.3,1.09-.1.77-.3,1.07-.48.65-.84.81c-.36.16-.79.36-1.29.36h-1.63l.79-.89v2.13h-1.86ZM55,197.95l-.79-.52h1.54c.32,0,.56-.17.72-.31.16-.14.24-.38.24-.63s-.08-.51-.24-.65-.4-.27-.72-.27h-1.54l.79-.64v3.02ZM56.72,199.92l-1.35-1.86h1.64l1.36,1.86h-1.65Z"/>
      <path class="cls-6" d="M61.81,199.92v-5.59h1.09l3,3.73h-.38v-3.73h1.24v5.59h-1.22l-3-3.73h.51v3.73h-1.24Z"/>
      <path class="cls-6" d="M73.17,200c-.44,0-.84-.07-1.21-.21-.37-.14-.69-.34-.96-.6-.27-.26-.48-.56-.63-.9s-.23-.72-.23-1.13.08-.79.23-1.13.36-.64.63-.9c.27-.26.59-.46.96-.6.37-.14.77-.21,1.21-.21s.84.07,1.21.21c.37.14.68.34.95.6s.48.56.63.9c.15.34.23.72.23,1.13s-.08.79-.23,1.14c-.15.35-.36.65-.63.9-.27.26-.59.45-.95.59-.37.14-.77.21-1.21.21ZM73.17,198.72c.21,0,.4-.04.58-.11s.33-.18.47-.32.24-.3.31-.5c.08-.19.11-.41.11-.64s-.04-.45-.11-.64c-.08-.19-.18-.35-.31-.49s-.29-.24-.47-.32-.37-.11-.58-.11-.4.04-.58.11c-.18.07-.33.18-.47.32-.13.14-.24.3-.31.49-.08.19-.11.41-.11.64s.04.45.11.64c.08.19.18.36.31.5.13.14.29.24.47.32.18.07.37.11.58.11Z"/>
      <path class="cls-6" d="M84.09,199.92v-5.59h2.79c.6,0,1.13.16,1.59.38.46.22.81.56,1.07.97.26.41.38.9.38,1.47s-.13,1.05-.38,1.46-.61.74-1.07.97c-.46.22-.99.35-1.59.35h-2.79ZM85.95,198.68h.87c.31,0,.58-.07.81-.19.23-.12.41-.29.54-.52.13-.23.19-.5.19-.81s-.06-.59-.19-.81c-.13-.22-.31-.44-.54-.56-.23-.12-.5-.22-.81-.22h-.87v3.11Z"/>
      <path class="cls-6" d="M94.61,198.68h3.09v1.24h-4.33v-5.59h4.33v1.24h-3.09v3.11ZM94.61,196.81h2.48v.62h-2.48v-.62Z"/>
      <path class="cls-6" d="M100.8,199.92v-5.59h1.86v4.35h2.48v1.24h-4.33Z"/>
      <path class="cls-6" d="M114.42,198.68h3.09v1.24h-4.33v-5.59h4.33v1.24h-3.09v3.11ZM114.42,196.81h2.48v.62h-2.48v-.62Z"/>
      <path class="cls-6" d="M122.71,200c-.45,0-.88-.06-1.29-.17s-.75-.26-1.01-.43l.51-1.14c.24.16.53.29.84.39.32.1.64.15.95.15.21,0,.38-.02.51-.06.13-.04.22-.09.28-.16.06-.07.09-.14.09-.23,0-.12-.06-.22-.17-.3-.11-.07-.26-.13-.44-.18-.18-.05-.38-.09-.6-.14-.22-.05-.44-.11-.66-.18-.22-.07-.42-.17-.6-.29-.18-.12-.33-.27-.44-.46-.11-.19-.17-.43-.17-.72,0-.33.09-.63.27-.89.18-.27.45-.48.81-.64.36-.16.8-.24,1.34-.24.36,0,.71.04,1.05.12.34.08.65.2.92.36l-.47,1.15c-.26-.14-.52-.25-.77-.32-.25-.07-.5-.11-.74-.11-.21,0-.38.02-.51.07s-.22.1-.28.18c-.06.07-.09.16-.09.25,0,.12.06.21.17.29.11.07.26.13.44.17.18.04.39.09.61.14.22.05.44.11.66.18.22.07.42.16.6.28.18.12.33.27.44.46.11.19.17.43.17.71,0,.32-.09.61-.27.88-.18.27-.45.48-.8.64-.36.16-.8.24-1.34.24Z"/>
      <path class="cls-6" d="M129.27,199.92v-4.35h-1.24v-1.24h4.33v1.24h-1.24v4.35h-1.86Z"/>
      <path class="cls-6" d="M134.81,199.92l2.4-5.59h1.52l2.41,5.59h-1.6l-1.88-4.97h.61l-1.88,4.97h-1.57ZM136.12,198.68l.4-1.24h2.66l.4,1.24h-3.45Z"/>
      <path class="cls-6" d="M144.12,199.92v-5.59h2.55c.6,0,1.13.16,1.59.38.46.22.81.56,1.07.97.26.41.38.9.38,1.47s-.13,1.05-.38,1.46-.61.74-1.07.97c-.46.22-.99.35-1.59.35h-2.55ZM145.36,198.68h1.25c.31,0,.58-.07.81-.19.23-.12.41-.29.54-.52.13-.23.19-.5.19-.81s-.06-.59-.19-.81c-.13-.22-.31-.44-.54-.56-.23-.12-.5-.22-.81-.22h-1.25v3.11Z"/>
      <path class="cls-6" d="M155.79,200c-.44,0-.84-.07-1.21-.21-.37-.14-.69-.34-.96-.6-.27-.26-.48-.56-.63-.9s-.23-.72-.23-1.13.08-.79.23-1.13.36-.64.63-.9c.27-.26.59-.46.96-.6.37-.14.77-.21,1.21-.21s.84.07,1.21.21c.37.14.68.34.95.6s.48.56.63.9c.15.34.23.72.23,1.13s-.08.79-.23,1.14c-.15.35-.36.65-.63.9-.27.26-.59.45-.95.59-.37.14-.77.21-1.21.21ZM155.79,198.72c.21,0,.4-.04.58-.11s.33-.18.47-.32.24-.3.31-.5c.08-.19.11-.41.11-.64s-.04-.45-.11-.64c-.08-.19-.18-.35-.31-.49s-.29-.24-.47-.32-.37-.11-.58-.11-.4.04-.58.11c-.18.07-.33.18-.47.32-.13.14-.24.3-.31.49-.08.19-.11.41-.11.64s.04.45.11.64c.08.19.18.36.31.5.13.14.29.24.47.32.18.07.37.11.58.11Z"/>
    </g>
  </g>
</svg>